<?xml version="1.0" encoding="UTF-8" standalone="no"?>
<svg
   xmlns:dc="http://purl.org/dc/elements/1.1/"
   xmlns:cc="http://creativecommons.org/ns#"
   xmlns:rdf="http://www.w3.org/1999/02/22-rdf-syntax-ns#"
   xmlns:svg="http://www.w3.org/2000/svg"
   xmlns="http://www.w3.org/2000/svg"
   id="svg8"
   version="1.1"
   viewBox="0 0 1080 1920"
   height="1920"
   width="1080">
  <defs
     id="defs2" />
  <metadata
     id="metadata5">
    <rdf:RDF>
      <cc:Work
         rdf:about="">
        <dc:format>image/svg+xml</dc:format>
        <dc:type
           rdf:resource="http://purl.org/dc/dcmitype/StillImage" />
        <dc:title></dc:title>
      </cc:Work>
    </rdf:RDF>
  </metadata>
  <g
     transform="translate(0,211.00002)"
     id="layer1">
    <path
       id="rect1227"
       transform="translate(0,-211.00002)"
       d="M 0 0 L 0 1920 L 1080 1920 L 1080 0 L 0 0 z M 196.57617 79.400391 L 871.15625 79.400391 L 945.40234 121.82812 L 968.0293 221.5293 L 968.0293 1741 L 924.92969 1815.6504 L 776.33984 1855.4648 L 287 1855.4648 L 158.14062 1820.9375 L 133.86914 1730.3555 L 133.86914 1424 L 133.86914 172 L 149.57422 113.39258 L 196.57617 79.400391 z "
       style="opacity:1;fill: #007bff;fill-opacity:1;stroke:none;stroke-width:4.65302896;stroke-linecap:round;stroke-linejoin:round;stroke-miterlimit:4;stroke-dasharray:none;stroke-dashoffset:0;stroke-opacity:1" />
    <g
       transform="matrix(1.0962638,0,0,1.0962638,-94.452649,47.56819)"
       id="g1232">
      <path
         style="opacity:1;fill:#222;fill-opacity:1;stroke:none;stroke-width:12.51314163;stroke-linecap:round;stroke-linejoin:round;stroke-miterlimit:4;stroke-dasharray:none;stroke-dashoffset:0;stroke-opacity:1"
         d="m 293.94313,-182.85878 c -66.35138,0 -119.76782,53.41645 -119.76782,119.767858 v 97.904609 c -0.37062,-0.05183 -0.73723,-0.111715 -1.12214,-0.111715 -4.56766,0 -8.24489,3.677207 -8.24489,8.24485 v 42.526253 c 0,4.567695 3.67723,8.244902 8.24489,8.244902 0.3849,0 0.75156,-0.06104 1.12214,-0.111714 v 60.541607 c -0.37062,-0.0518 -0.73723,-0.11172 -1.12214,-0.11172 -4.56766,0 -8.24489,3.67721 -8.24489,8.24485 v 99.80653 c 0,4.56765 3.67723,8.24491 8.24489,8.24491 0.3849,0 0.75156,-0.061 1.12214,-0.11171 v 33.97625 c -0.37062,-0.0518 -0.73719,-0.11517 -1.12214,-0.11517 -4.56766,0 -8.24489,3.67721 -8.24489,8.24491 v 99.80649 c 0,4.56764 3.67723,8.24491 8.24489,8.24491 0.3849,0 0.75156,-0.0611 1.12214,-0.11172 v 922.5016 c 0,66.3514 53.41644,119.7678 119.76782,119.7678 h 568.18181 c 66.35136,0 119.76784,-53.4164 119.76784,-119.7678 V 382.34982 c 0.41627,0.0518 0.8361,0.0916 1.26778,0.0916 5.26983,0 9.51288,-4.23964 9.51288,-9.50942 V 196.80259 c 0,-5.26966 -4.24305,-9.51281 -9.51288,-9.51281 -0.43131,0 -0.85179,0.0403 -1.26778,0.095 V -63.090864 c 0,-66.351416 -53.41648,-119.767856 -119.76784,-119.767856 z m 83.07942,41.794 c 0.16602,-0.0115 0.34597,0.0115 0.51188,0.0115 5.49962,0.003 9.97957,4.62143 10.10949,10.26199 h 0.007 v 7.16347 l 0.19659,3.85122 c 1.91484,18.69682 17.62179,33.189707 36.84094,33.189707 h 140.44427 38.18341 140.44454 c 19.21906,0 34.926,-14.492887 36.84088,-33.189707 l 0.19694,-3.85122 v -7.16347 h 0.006 c 0.12957,-5.64056 4.6098,-10.25957 10.1094,-10.26199 0.16699,9.3e-4 0.34609,-0.023 0.51193,-0.0115 24.3986,-0.002 49.7033,1.7511 74.19363,0.55282 48.30905,0 82.55393,35.15559 79.99774,82.496294 -0.42094,473.103276 0.81623,946.208026 -0.66091,1419.310166 -9.46714,62.1818 -83.81101,60.5363 -131.97576,58.9415 -69.88109,-0.4636 -139.77385,-0.311 -209.66485,-0.1595 v 0.067 c -6.3633,-0.011 -12.72669,-0.017 -19.09012,-0.029 -6.36441,0.011 -12.72894,0.018 -19.09336,0.029 v -0.067 c -69.89108,-0.1508 -139.78384,-0.3041 -209.66486,0.1595 -48.16483,1.5948 -122.50868,3.2403 -131.97582,-58.9415 -1.4773,-473.10209 -0.24001,-946.20695 -0.66118,-1419.310166 -2.55598,-47.340704 31.68874,-82.496364 79.99776,-82.496364 24.49039,1.19853 49.79525,-0.55453 74.1938,-0.5528 z"
         id="rect1211" />
      <rect
         style="opacity:1;fill:#ffffff;fill-opacity:1;stroke:none;stroke-width:5.67472267;stroke-linecap:round;stroke-linejoin:round;stroke-miterlimit:4;stroke-dasharray:none;stroke-dashoffset:0;stroke-opacity:1"
         id="rect1221"
         width="106.09864"
         height="18.442509"
         x="529.2323"
         y="-136.05383"
         ry="8.2448854" />
      <circle
         style="opacity:1;fill:#ffffff;fill-opacity:1;stroke:none;stroke-width:5.67472267;stroke-linecap:round;stroke-linejoin:round;stroke-miterlimit:4;stroke-dasharray:none;stroke-dashoffset:0;stroke-opacity:1"
         id="path1223"
         cx="664.51343"
         cy="-126.83264"
         r="10.740049" />
    </g>
  </g>
</svg>
